*
G04 Job   : H:\OstraCam_II\Schematic\PCB\Design1.pcb*
G04 User  : CELAB13:clim*
G04 Layer : EtchLayer2.gdo*
G04 Date  : Mon Jan 23 17:27:35 2017*
G04 Mentor Graphics Example Gerber Output Definition*
%ICAS*%
%MOIN*%
%FSLAX24Y24*%
%OFA0.0000B0.0000*%
G90*
G74*
%AMVB_RECTANGLE*
21,1,$1,$2,0,0,$3*
%
%ADD10C,0.00984*%
%ADD11C,0.01181*%
%ADD12C,0.03346*%
%ADD17C,0.03937*%
%ADD14C,0.04921*%
%ADD18C,0.05906*%
%ADD70C,0.05984*%
%ADD16C,0.08071*%
%ADD15C,0.09252*%
%ADD13C,0.11024*%
%ADD19VB_RECTANGLE,0.05906X0.05906X90.00000*%
G01*
G36*
X250Y38970D02*
G02X280Y39000I30D01*
G01X875*
Y34000*
G03X1142Y33733I267*
X1230Y33747J267*
G01Y23104*
G03X1497Y22836I267*
X1703Y22933J268*
G01Y16500*
G03X1849Y16245I297*
G01Y8000*
G03X2500Y7349I651*
X3151Y8000J651*
X2500Y8651I651*
X1849Y8000J651*
G01Y16245*
G03X2000Y16203I151J255*
X2227Y16309J297*
G02X2250Y16319I23J20*
X2273Y16309J30*
G03X2500Y16203I227J191*
X2727Y16309J297*
G02X2750Y16319I23J20*
X2773Y16309J30*
G03X3000Y16203I227J191*
X3297Y16500J297*
X3000Y16797I297*
X2773Y16691J297*
G02X2750Y16681I23J20*
X2727Y16691J30*
G03X2500Y16797I227J191*
X2273Y16691J297*
G02X2250Y16681I23J20*
X2227Y16691J30*
G03X2000Y16797I227J191*
X1703Y16500J297*
G01Y22933*
G03X1764Y23104I206J171*
X1497Y23371I267*
X1230Y23104J267*
G01Y33747*
G03X1409Y34000I88J253*
X1142Y34267I267*
X875Y34000J267*
G01Y39000*
X1996*
Y31500*
G03X2500Y30996I504*
X2996Y31416J504*
G01Y18000*
G03X3500Y17496I504*
X3795Y17592J504*
G01Y14165*
G03X4063Y13898I268*
X4154Y13914J267*
G01Y10000*
G03X4500Y9654I346*
X4846Y10000J346*
X4500Y10346I346*
X4154Y10000J346*
G01Y13914*
G03X4330Y14165I91J251*
X4063Y14433I267*
X3795Y14165J268*
G01Y17592*
G03X4004Y18000I295J408*
X3500Y18504I504*
X2996Y18000J504*
G01Y31416*
G03X3004Y31500I496J84*
X2500Y32004I504*
X1996Y31500J504*
G01Y39000*
X2937*
Y33500*
G03X3203Y33022I563*
G01Y25500*
G03X3500Y25203I297*
X3797Y25500J297*
X3500Y25797I297*
X3203Y25500J297*
G01Y33022*
G03X3500Y32937I297J478*
X4063Y33500J563*
X3500Y34063I563*
X2937Y33500J563*
G01Y39000*
X4203*
Y25500*
G03X4500Y25203I297*
X4797Y25500J297*
X4500Y25797I297*
X4203Y25500J297*
G01Y39000*
X4788*
Y32319*
G03X5154Y31792I562*
G01Y10000*
G03X5500Y9654I346*
X5846Y10000J346*
X5500Y10346I346*
X5154Y10000J346*
G01Y31792*
G03X5203Y31776I196J527*
G01Y25500*
G03X5500Y25203I297*
X5797Y25500J297*
X5500Y25797I297*
X5203Y25500J297*
G01Y31776*
G03X5350Y31756I147J543*
X5849Y32058J563*
G01Y8000*
G03X6500Y7349I651*
X7151Y8000J651*
X6500Y8651I651*
X5849Y8000J651*
G01Y32058*
G03X5913Y32319I499J261*
X5350Y32881I563*
X4788Y32319J562*
G01Y34681*
G03X5350Y34119I562*
X5913Y34681J562*
X5350Y35244I563*
X4788Y34681J563*
G01Y39000*
X6875*
Y17954*
G03X6982Y17740I267*
G01Y14521*
G03X7249Y14253I267*
X7516Y14521J268*
X7249Y14788I267*
X6982Y14521J267*
G01Y17740*
G03X7142Y17686I160J214*
X7409Y17954J268*
X7142Y18221I267*
X6875Y17954J267*
G01Y39000*
X7233*
Y27358*
G03X7500Y27091I267*
X7767Y27358J267*
X7500Y27625I267*
X7233Y27358J267*
G01Y39000*
X7875*
Y34000*
G03X7996Y33776I267*
G01Y24000*
G03X8500Y23496I504*
X9004Y24000J504*
X8500Y24504I504*
X7996Y24000J504*
G01Y33776*
G03X8142Y33733I146J224*
X8409Y34000J267*
X8142Y34267I267*
X7875Y34000J267*
G01Y39000*
X8733*
Y30047*
G03X9000Y29780I267*
X9267Y30047J267*
X9000Y30315I267*
X8733Y30047J268*
G01Y39000*
X9795*
Y13665*
G03X9996Y13406I268*
G01Y11000*
G03X10500Y10496I504*
X10605Y10507J504*
G01Y2500*
G03X11000Y2105I395*
X11395Y2500J395*
X11000Y2895I395*
X10605Y2500J395*
G01Y9500*
G03X11000Y9105I395*
X11395Y9500J395*
X11000Y9895I395*
X10605Y9500J395*
G01Y10507*
G03X11004Y11000I105J493*
X10500Y11504I504*
X9996Y11000J504*
G01Y13406*
G03X10063Y13398I67J259*
X10330Y13665J267*
X10063Y13933I267*
X9795Y13665J268*
G01Y39000*
X9937*
Y33500*
G03X10067Y33140I563*
G01Y17063*
G03X10335Y16795I268*
X10602Y17063J268*
X10335Y17330I267*
X10067Y17063J267*
G01Y33140*
G03X10337Y32962I433J360*
G01Y25335*
G03X10604Y25067I267*
X10872Y25335J268*
X10604Y25602I268*
X10337Y25335J267*
G01Y32962*
G03X10500Y32937I163J538*
X11063Y33500J563*
X10500Y34063I563*
X9937Y33500J563*
G01Y39000*
X11496*
Y11000*
G03X11605Y10688I504*
G01Y2500*
G03X12000Y2105I395*
X12395Y2500J395*
X12000Y2895I395*
X11605Y2500J395*
G01Y9500*
G03X12000Y9105I395*
X12395Y9500J395*
X12000Y9895I395*
X11605Y9500J395*
G01Y10688*
G03X12000Y10496I395J312*
X12504Y11000J504*
X12000Y11504I504*
X11496Y11000J504*
G01Y39000*
X11788*
Y32319*
G03X12350Y31756I562*
X12605Y31817J563*
G01Y2500*
G03X13000Y2105I395*
X13395Y2500J395*
X13000Y2895I395*
X12605Y2500J395*
G01Y9500*
G03X13000Y9105I395*
X13395Y9500J395*
X13000Y9895I395*
X12605Y9500J395*
G01Y31817*
G03X12913Y32319I255J502*
X12350Y32881I563*
X11788Y32319J562*
G01Y34681*
G03X12350Y34119I562*
X12913Y34681J562*
X12350Y35244I563*
X11788Y34681J563*
G01Y39000*
X13229*
Y20613*
G03X13497Y20346I268*
X13764Y20613J267*
X13497Y20880I267*
X13229Y20613J267*
G01Y39000*
X13732*
Y22264*
G03X14000Y21997I268*
X14239Y22146J267*
G01Y20633*
G03X14507Y20365I268*
X14670Y20421J268*
G01Y8665*
G03X14937Y8398I267*
X14996Y8405J267*
G01Y3500*
G03X15500Y2996I504*
X16004Y3500J504*
X15500Y4004I504*
X14996Y3500J504*
G01Y8405*
G03X15205Y8665I59J260*
X14937Y8933I268*
X14670Y8665J268*
G01Y20421*
G03X14774Y20633I163J212*
X14507Y20900I267*
X14239Y20633J267*
G01Y22146*
G03X14267Y22264I239J118*
X14000Y22531I267*
X13732Y22264J267*
G01Y39000*
X14496*
Y31500*
G03X14803Y31037I504*
G01Y21974*
G03X15068Y21708I265*
X15334Y21974J266*
X15068Y22239I266*
X14803Y21974J265*
G01Y31037*
G03X15000Y30996I197J463*
X15504Y31500J504*
X15000Y32004I504*
X14496Y31500J504*
G01Y39000*
X15103*
Y36999*
G03X15498Y36604I395*
X15893Y36999J395*
X15498Y37394I395*
X15103Y36999J395*
G01Y39000*
X16103*
Y36999*
G03X16421Y36611I395*
G01Y25890*
G03X16689Y25622I268*
X16703Y25623J268*
G01Y16500*
G03X17000Y16203I297*
X17227Y16309J297*
G02X17250Y16319I23J20*
X17273Y16309J30*
G03X17349Y16245I227J191*
G01Y8000*
G03X18000Y7349I651*
X18651Y8000J651*
X18000Y8651I651*
X17349Y8000J651*
G01Y16245*
G03X17500Y16203I151J255*
X17727Y16309J297*
G02X17750Y16319I23J20*
X17773Y16309J30*
G03X18000Y16203I227J191*
X18297Y16500J297*
X18000Y16797I297*
X17773Y16691J297*
G02X17750Y16681I23J20*
X17727Y16691J30*
G03X17500Y16797I227J191*
X17273Y16691J297*
G02X17250Y16681I23J20*
X17227Y16691J30*
G03X17000Y16797I227J191*
X16703Y16500J297*
G01Y25623*
G03X16956Y25890I14J267*
X16689Y26157I267*
X16421Y25890J267*
G01Y36611*
G03X16498Y36604I77J388*
X16893Y36999J395*
X16498Y37394I395*
X16103Y36999J395*
G01Y39000*
X17103*
Y36999*
G03X17478Y36604I395*
G01Y24000*
G03X17996Y23478I522*
G01Y18000*
G03X18500Y17496I504*
X18905Y17700J504*
G01Y14191*
G03X19172Y13924I267*
X19439Y14191J267*
X19172Y14458I267*
X18905Y14191J267*
G01Y17700*
G03X19004Y18000I405J300*
X18500Y18504I504*
X17996Y18000J504*
G01Y23478*
G03X18000I4J522*
X18522Y24000J522*
X18000Y24522I522*
X17478Y24000J522*
G01Y36604*
G03X17498I20J395*
X17893Y36999J395*
X17498Y37394I395*
X17103Y36999J395*
G01Y39000*
X18103*
Y36999*
G03X18498Y36604I395*
X18893Y36999J395*
X18498Y37394I395*
X18103Y36999J395*
G01Y39000*
X19103*
Y36999*
G03X19498Y36604I395*
X19654Y36636J395*
G01Y10000*
G03X20000Y9654I346*
X20346Y10000J346*
X20000Y10346I346*
X19654Y10000J346*
G01Y36636*
G03X19893Y36999I156J363*
X19498Y37394I395*
X19103Y36999J395*
G01Y39000*
X20085*
Y36999*
G03X20498Y36585I413*
X20583Y36594J414*
G01Y30825*
G03X20654Y30598I399*
G01Y10000*
G03X21000Y9654I346*
X21346Y10000J346*
X21000Y10346I346*
X20654Y10000J346*
G01Y30598*
G03X20982Y30426I328J227*
X21349Y30666J399*
G01Y8000*
G03X22000Y7349I651*
X22651Y8000J651*
X22000Y8651I651*
X21349Y8000J651*
G01Y30666*
G03X21375Y30751I367J159*
G01Y18000*
G03X21476Y17790I267*
G01Y14359*
G03X21744Y14092I268*
X22011Y14359J267*
X21744Y14626I267*
X21476Y14359J267*
G01Y17790*
G03X21642Y17733I166J210*
X21909Y18000J267*
X21642Y18267I267*
X21375Y18000J267*
G01Y30751*
G03X21382Y30825I393J74*
X20982Y31224I400*
X20583Y30825J399*
G01Y33384*
G03X20982Y32985I399*
X21382Y33384J399*
X20982Y33783I400*
X20583Y33384J399*
G01Y36594*
G03X20911Y36999I85J405*
X20498Y37412I413*
X20085Y36999J413*
G01Y39000*
X22355*
Y30825*
G03X22754Y30426I399*
X23153Y30825J399*
X22754Y31224I399*
X22355Y30825J399*
G01Y33384*
G03X22754Y32985I399*
X23153Y33384J399*
X22754Y33783I399*
X22355Y33384J399*
G01Y39000*
X24455*
Y13671*
G03X24722Y13404I267*
X24990Y13671J267*
X24722Y13938I268*
X24455Y13671J267*
G01Y39000*
X24567*
Y17063*
G03X24835Y16795I268*
X25102Y17063J268*
X24835Y17330I267*
X24567Y17063J267*
G01Y39000*
X24777*
Y31854*
G03X24795Y31758I266*
G01Y29665*
G03X25063Y29398I268*
X25330Y29665J267*
X25063Y29933I267*
X24795Y29665J268*
G01Y31758*
G03X25043Y31589I248J96*
X25309Y31854J265*
X25043Y32120I266*
X24777Y31854J266*
G01Y39000*
X25565*
Y33808*
G03X25583Y33687I413*
G01Y19973*
G03X25978Y19578I395*
X26374Y19973J395*
X25978Y20368I396*
X25583Y19973J395*
G01Y20961*
G03X25978Y20566I395*
X26374Y20961J395*
X25978Y21357I396*
X25583Y20961J396*
G01Y21950*
G03X25978Y21554I395*
X26374Y21950J396*
X25978Y22345I396*
X25583Y21950J395*
G01Y22938*
G03X25978Y22542I395*
X26374Y22938J396*
X25978Y23333I396*
X25583Y22938J395*
G01Y23926*
G03X25978Y23531I395*
X26374Y23926J395*
X25978Y24321I396*
X25583Y23926J395*
G01Y24914*
G03X25978Y24519I395*
X26374Y24914J395*
X25978Y25309I396*
X25583Y24914J395*
G01Y25902*
G03X25978Y25507I395*
X26374Y25902J395*
X25978Y26298I396*
X25583Y25902J396*
G01Y26890*
G03X25978Y26495I395*
X26374Y26890J395*
X25978Y27286I396*
X25583Y26890J396*
G01Y27879*
G03X25978Y27483I395*
X26374Y27879J396*
X25978Y28274I396*
X25583Y27879J395*
G01Y28867*
G03X25978Y28472I395*
X26374Y28867J395*
X25978Y29262I396*
X25583Y28867J395*
G01Y29855*
G03X25978Y29460I395*
X26374Y29855J395*
X25978Y30250I396*
X25583Y29855J395*
G01Y30843*
G03X25978Y30448I395*
X26374Y30843J395*
X25978Y31239I396*
X25583Y30843J396*
G01Y31831*
G03X25978Y31436I395*
X26374Y31831J395*
X25978Y32227I396*
X25583Y31831J396*
G01Y32820*
G03X25978Y32424I395*
X26374Y32820J396*
X25978Y33215I396*
X25583Y32820J395*
G01Y33687*
G03X25978Y33394I395J121*
X26392Y33808J414*
X25978Y34221I414*
X25565Y33808J413*
G01Y39000*
X25583*
Y34796*
G03X25978Y34401I395*
X26374Y34796J395*
X25978Y35191I396*
X25583Y34796J395*
G01Y39000*
X26605*
Y2500*
G03X27000Y2105I395*
X27395Y2500J395*
X27000Y2895I395*
X26605Y2500J395*
G01Y9500*
G03X27000Y9105I395*
X27395Y9500J395*
X27000Y9895I395*
X26605Y9500J395*
G01Y39000*
X26996*
Y11000*
G03X27500Y10496I504*
X27605Y10507J504*
G01Y2500*
G03X28000Y2105I395*
X28395Y2500J395*
X28000Y2895I395*
X27605Y2500J395*
G01Y9500*
G03X28000Y9105I395*
X28395Y9500J395*
X28000Y9895I395*
X27605Y9500J395*
G01Y10507*
G03X28004Y11000I105J493*
X27500Y11504I504*
X26996Y11000J504*
G01Y39000*
X28496*
Y11000*
G03X28605Y10688I504*
G01Y2500*
G03X29000Y2105I395*
X29395Y2500J395*
X29000Y2895I395*
X28605Y2500J395*
G01Y9500*
G03X29000Y9105I395*
X29395Y9500J395*
X29000Y9895I395*
X28605Y9500J395*
G01Y10688*
G03X29000Y10496I395J312*
X29504Y11000J504*
X29000Y11504I504*
X28496Y11000J504*
G01Y39000*
X30670*
Y9165*
G03X30937Y8898I267*
X31205Y9165J267*
X30937Y9433I268*
X30670Y9165J268*
G01Y39000*
X31496*
Y3000*
G03X32000Y2496I504*
X32504Y3000J504*
X32000Y3504I504*
X31496Y3000J504*
G01Y39000*
X33583*
Y19973*
G03X33978Y19578I395*
X34374Y19973J395*
X33978Y20368I396*
X33583Y19973J395*
G01Y20961*
G03X33978Y20566I395*
X34374Y20961J395*
X33978Y21357I396*
X33583Y20961J396*
G01Y21950*
G03X33978Y21554I395*
X34374Y21950J396*
X33978Y22345I396*
X33583Y21950J395*
G01Y22938*
G03X33978Y22542I395*
X34374Y22938J396*
X33978Y23333I396*
X33583Y22938J395*
G01Y23926*
G03X33978Y23531I395*
X34374Y23926J395*
X33978Y24321I396*
X33583Y23926J395*
G01Y24914*
G03X33978Y24519I395*
X34374Y24914J395*
X33978Y25309I396*
X33583Y24914J395*
G01Y25902*
G03X33978Y25507I395*
X34374Y25902J395*
X33978Y26298I396*
X33583Y25902J396*
G01Y26890*
G03X33978Y26495I395*
X34374Y26890J395*
X33978Y27286I396*
X33583Y26890J396*
G01Y27879*
G03X33978Y27483I395*
X34374Y27879J396*
X33978Y28274I396*
X33583Y27879J395*
G01Y28867*
G03X33978Y28472I395*
X34374Y28867J395*
X33978Y29262I396*
X33583Y28867J395*
G01Y29855*
G03X33978Y29460I395*
X34374Y29855J395*
X33978Y30250I396*
X33583Y29855J395*
G01Y30843*
G03X33978Y30448I395*
X34374Y30843J395*
X33978Y31239I396*
X33583Y30843J396*
G01Y31831*
G03X33978Y31436I395*
X34374Y31831J395*
X33978Y32227I396*
X33583Y31831J396*
G01Y32820*
G03X33978Y32424I395*
X34374Y32820J396*
X33978Y33215I396*
X33583Y32820J395*
G01Y33808*
G03X33978Y33413I395*
X34374Y33808J395*
X33978Y34203I396*
X33583Y33808J395*
G01Y34796*
G03X33978Y34401I395*
X34374Y34796J395*
X33978Y35191I396*
X33583Y34796J395*
G01Y39000*
X34699*
Y1997*
G03X34964Y1731I265*
X35230Y1997J266*
X34964Y2262I266*
X34699Y1997J265*
G01Y39000*
X34762*
Y6021*
G03X35027Y5755I265*
X35293Y6021J266*
X35027Y6287I266*
X34762Y6021J266*
G01Y39000*
X35496*
Y20500*
G03X35876Y20012I504*
G01Y1500*
G03X36142Y1234I266*
X36408Y1500J266*
X36142Y1766I266*
X35876Y1500J266*
G01Y20012*
G03X36000Y19996I124J488*
X36504Y20500J504*
X36000Y21004I504*
X35496Y20500J504*
G01Y22000*
G03X36000Y21496I504*
X36504Y22000J504*
X36000Y22504I504*
X35496Y22000J504*
G01Y23500*
G03X36000Y22996I504*
X36504Y23500J504*
X36000Y24004I504*
X35496Y23500J504*
G01Y25000*
G03X36000Y24496I504*
X36504Y25000J504*
X36000Y25504I504*
X35496Y25000J504*
G01Y26500*
G03X36000Y25996I504*
X36504Y26500J504*
X36000Y27004I504*
X35496Y26500J504*
G01Y28000*
G03X36000Y27496I504*
X36504Y28000J504*
X36000Y28504I504*
X35496Y28000J504*
G01Y30000*
G03X36000Y29496I504*
X36504Y30000J504*
X36000Y30504I504*
X35496Y30000J504*
G01Y39000*
X36587*
Y5205*
G03X36605Y5142I118*
G01Y2500*
G03X37000Y2105I395*
X37395Y2500J395*
X37000Y2895I395*
X36605Y2500J395*
G01Y3500*
G03X37000Y3105I395*
X37395Y3500J395*
X37000Y3895I395*
X36605Y3500J395*
G01Y4500*
G03X37000Y4105I395*
X37395Y4500J395*
X37000Y4895I395*
X36605Y4500J395*
G01Y5142*
G03X36705Y5087I100J63*
G01X37295*
G03X37413Y5205J118*
G01Y5795*
G03X37295Y5913I118*
G01X36705*
G03X36587Y5795J118*
G01Y10705*
G03X36605Y10642I118*
G01Y8000*
G03X37000Y7605I395*
X37395Y8000J395*
X37000Y8395I395*
X36605Y8000J395*
G01Y9000*
G03X37000Y8605I395*
X37395Y9000J395*
X37000Y9395I395*
X36605Y9000J395*
G01Y10000*
G03X37000Y9605I395*
X37395Y10000J395*
X37000Y10395I395*
X36605Y10000J395*
G01Y10642*
G03X36705Y10587I100J63*
G01X37295*
G03X37413Y10705J118*
G01Y11295*
G03X37295Y11413I118*
G01X36705*
G03X36587Y11295J118*
G01Y15000*
G03X36605Y14879I413*
G01Y13000*
G03X37000Y12605I395*
X37395Y13000J395*
X37000Y13395I395*
X36605Y13000J395*
G01Y14000*
G03X37000Y13605I395*
X37395Y14000J395*
X37000Y14395I395*
X36605Y14000J395*
G01Y14879*
G03X37000Y14587I395J121*
X37413Y15000J413*
X37000Y15413I413*
X36587Y15000J413*
G01Y39000*
X36605*
Y15705*
G03X36705Y15605I100*
G01X37295*
G03X37395Y15705J100*
G01Y16295*
G03X37295Y16395I100*
G01X36705*
G03X36605Y16295J100*
G01Y39000*
X37591*
Y1500*
G03X37858Y1233I267*
X38125Y1500J267*
X37858Y1767I267*
X37591Y1500J267*
G01Y39000*
X39220*
G02X39250Y38970J30*
G01X39000Y780*
G02X38970Y750I30*
G01X280Y1000*
G02X250Y1030J30*
G01Y38970*
G37*
G54D10*
X15068Y21974D02*
X14859Y22183D01*
X15068Y21974D02*
X15278Y21765D01*
X15068Y21974D02*
X14859Y21765D01*
X15068Y21974D02*
X15278Y22183D01*
X25043Y31854D02*
X24834Y32063D01*
X25043Y31854D02*
X25252Y31645D01*
X25043Y31854D02*
X24834Y31645D01*
X25043Y31854D02*
X25252Y32063D01*
X34964Y1997D02*
X35173Y2206D01*
X34964Y1997D02*
X34755Y1788D01*
X34964Y1997D02*
X34755Y2206D01*
X34964Y1997D02*
X35173Y1788D01*
X35027Y6021D02*
X35236Y5812D01*
X35027Y6021D02*
X35236Y6230D01*
X35027Y6021D02*
X34818Y5812D01*
X35027Y6021D02*
X34818Y6230D01*
X36142Y1500D02*
X35933Y1709D01*
X36142Y1500D02*
X36351Y1709D01*
X36142Y1500D02*
X35933Y1291D01*
X36142Y1500D02*
X36351Y1291D01*
G54D11*
X18000Y24000D02*
X18390Y24390D01*
X18000Y24000D02*
X17610Y24390D01*
X18000Y24000D02*
X17610Y23610D01*
X18000Y24000D02*
X18390Y23610D01*
X20498Y36999D02*
X20184Y37312D01*
X20498Y36999D02*
X20184Y36685D01*
X20498Y36999D02*
X20811Y37312D01*
X20498Y36999D02*
X20811Y36685D01*
X25978Y33808D02*
X26292Y34121D01*
X25978Y33808D02*
X25665Y33494D01*
X25978Y33808D02*
X25665Y34121D01*
X25978Y33808D02*
X26292Y33494D01*
X36764Y5264D02*
X36600Y5100D01*
X36764Y5736D02*
X36600Y5900D01*
X36764Y10764D02*
X36600Y10600D01*
X36764Y11236D02*
X36600Y11400D01*
X37000Y15000D02*
X37314Y15314D01*
X37000Y15000D02*
X36686Y15314D01*
X37000Y15000D02*
X36686Y14686D01*
X37000Y15000D02*
X37314Y14686D01*
X37236Y5264D02*
X37400Y5100D01*
X37236Y5736D02*
X37400Y5900D01*
X37236Y10764D02*
X37400Y10600D01*
X37236Y11236D02*
X37400Y11400D01*
G54D12*
X1142Y34000D03*
X1497Y23104D03*
X4063Y14165D03*
X7142Y17954D03*
X7249Y14521D03*
X7500Y27358D03*
X8142Y34000D03*
X9000Y30047D03*
X10063Y13665D03*
X10335Y17063D03*
X10604Y25335D03*
X13497Y20613D03*
X14000Y22264D03*
X14507Y20633D03*
X14937Y8665D03*
X15068Y21974D03*
X16689Y25890D03*
X19172Y14191D03*
X21642Y18000D03*
X21744Y14359D03*
X24722Y13671D03*
X24835Y17063D03*
X25043Y31854D03*
X25063Y29665D03*
X30937Y9165D03*
X34964Y1997D03*
X35027Y6021D03*
X36142Y1500D03*
X37858D03*
G54D13*
X2500Y8000D03*
X6500D03*
X18000D03*
X22000D03*
G54D14*
X4500Y10000D03*
X5500D03*
X20000D03*
X21000D03*
G54D15*
X3500Y33500D03*
X5350Y32319D03*
Y34681D03*
X10500Y33500D03*
X12350Y32319D03*
Y34681D03*
G54D16*
X2500Y31500D03*
X3500Y18000D03*
X8500Y24000D03*
X10500Y11000D03*
X12000D03*
X15000Y31500D03*
X15500Y3500D03*
X18000Y24000D03*
X18500Y18000D03*
X27500Y11000D03*
X29000D03*
X32000Y3000D03*
X36000Y20500D03*
Y22000D03*
Y23500D03*
Y25000D03*
Y26500D03*
Y28000D03*
Y30000D03*
G54D17*
X2000Y16500D03*
X2500D03*
X3000D03*
X3500Y25500D03*
X4500D03*
X5500D03*
X17000Y16500D03*
X17500D03*
X18000D03*
G54D18*
X11000Y2500D03*
Y9500D03*
X12000Y2500D03*
Y9500D03*
X13000Y2500D03*
Y9500D03*
X15498Y36999D03*
X16498D03*
X17498D03*
X18498D03*
X19498D03*
X20498D03*
X25978Y19973D03*
Y20961D03*
Y21950D03*
Y22938D03*
Y23926D03*
Y24914D03*
Y25902D03*
Y26890D03*
Y27879D03*
Y28867D03*
Y29855D03*
Y30843D03*
Y31831D03*
Y32820D03*
Y33808D03*
Y34796D03*
X27000Y2500D03*
Y9500D03*
X28000Y2500D03*
Y9500D03*
X29000Y2500D03*
Y9500D03*
X33978Y19973D03*
Y20961D03*
Y21950D03*
Y22938D03*
Y23926D03*
Y24914D03*
Y25902D03*
Y26890D03*
Y27879D03*
Y28867D03*
Y29855D03*
Y30843D03*
Y31831D03*
Y32820D03*
Y33808D03*
Y34796D03*
X37000Y2500D03*
Y3500D03*
Y4500D03*
Y8000D03*
Y9000D03*
Y10000D03*
Y13000D03*
Y14000D03*
Y15000D03*
G54D19*
Y5500D03*
Y11000D03*
Y16000D03*
G54D70*
X20982Y30825D03*
Y33384D03*
X22754Y30825D03*
Y33384D03*
M02*
