*
G04 Job   : H:\OstraCam_II\Schematic\PCB\Design1.pcb*
G04 User  : CELAB13:clim*
G04 Layer : EtchLayer3.gdo*
G04 Date  : Mon Jan 23 17:27:35 2017*
G04 Mentor Graphics Example Gerber Output Definition*
%ICAS*%
%MOIN*%
%FSLAX24Y24*%
%OFA0.0000B0.0000*%
G90*
G74*
%AMVB_RECTANGLE*
21,1,$1,$2,0,0,$3*
%
%ADD10C,0.00984*%
%ADD11C,0.01181*%
%ADD12C,0.03346*%
%ADD17C,0.03937*%
%ADD14C,0.04921*%
%ADD18C,0.05906*%
%ADD70C,0.05984*%
%ADD16C,0.08071*%
%ADD15C,0.09252*%
%ADD13C,0.11024*%
%ADD19VB_RECTANGLE,0.05906X0.05906X90.00000*%
G01*
G36*
X1500Y38970D02*
G02X1530Y39000I30D01*
G01X1996*
Y31500*
G03X2500Y30996I504*
X2996Y31416J504*
G01Y18000*
G03X3500Y17496I504*
X3797Y17593J504*
G01Y14165*
G03X4063Y13900I266*
X4154Y13916J265*
G01Y10000*
G03X4500Y9654I346*
X4846Y10000J346*
X4500Y10346I346*
X4154Y10000J346*
G01Y13916*
G03X4328Y14165I91J249*
X4063Y14431I265*
X3797Y14165J266*
G01Y17593*
G03X4004Y18000I297J407*
X3500Y18504I504*
X2996Y18000J504*
G01Y31416*
G03X3004Y31500I496J84*
X2500Y32004I504*
X1996Y31500J504*
G01Y39000*
X2937*
Y33500*
G03X3203Y33022I563*
G01Y25500*
G03X3500Y25203I297*
X3797Y25500J297*
X3500Y25797I297*
X3203Y25500J297*
G01Y33022*
G03X3500Y32937I297J478*
X4063Y33500J563*
X3500Y34063I563*
X2937Y33500J563*
G01Y39000*
X4205*
Y25500*
G03X4500Y25205I295*
X4795Y25500J295*
X4500Y25795I295*
X4205Y25500J295*
G01Y39000*
X4788*
Y32319*
G03X5154Y31792I562*
G01Y10000*
G03X5500Y9654I346*
X5846Y10000J346*
X5500Y10346I346*
X5154Y10000J346*
G01Y31792*
G03X5203Y31776I196J527*
G01Y25500*
G03X5500Y25203I297*
X5797Y25500J297*
X5500Y25797I297*
X5203Y25500J297*
G01Y31776*
G03X5350Y31756I147J543*
X5849Y32058J563*
G01Y8000*
G03X6500Y7349I651*
X7151Y8000J651*
X6500Y8651I651*
X5849Y8000J651*
G01Y32058*
G03X5913Y32319I499J261*
X5350Y32881I563*
X4788Y32319J562*
G01Y34681*
G03X5350Y34119I562*
X5913Y34681J562*
X5350Y35244I563*
X4788Y34681J563*
G01Y39000*
X6876*
Y17954*
G03X6983Y17741I266*
G01Y14521*
G03X7249Y14255I266*
X7515Y14521J266*
X7249Y14786I266*
X6983Y14521J265*
G01Y17741*
G03X7142Y17688I159J213*
X7408Y17954J266*
X7142Y18219I266*
X6876Y17954J265*
G01Y39000*
X7234*
Y27358*
G03X7500Y27092I266*
X7766Y27358J266*
X7500Y27624I266*
X7234Y27358J266*
G01Y39000*
X7876*
Y34000*
G03X7996Y33778I266*
G01Y24000*
G03X8500Y23496I504*
X9004Y24000J504*
X8500Y24504I504*
X7996Y24000J504*
G01Y33778*
G03X8142Y33734I146J222*
X8408Y34000J266*
X8142Y34266I266*
X7876Y34000J266*
G01Y39000*
X8734*
Y30047*
G03X9000Y29782I266*
X9266Y30047J265*
X9000Y30313I266*
X8734Y30047J266*
G01Y39000*
X9797*
Y13665*
G03X9996Y13408I266*
G01Y11000*
G03X10500Y10496I504*
X10587Y10504J504*
G01Y9500*
G03X10605Y9379I413*
G01Y2500*
G03X11000Y2105I395*
X11395Y2500J395*
X11000Y2895I395*
X10605Y2500J395*
G01Y9379*
G03X11000Y9087I395J121*
X11413Y9500J413*
X11000Y9913I413*
X10587Y9500J413*
G01Y10504*
G03X11004Y11000I87J496*
X10500Y11504I504*
X9996Y11000J504*
G01Y13408*
G03X10063Y13400I67J257*
X10328Y13665J265*
X10063Y13931I265*
X9797Y13665J266*
G01Y39000*
X9937*
Y33500*
G03X10069Y33139I563*
G01Y17063*
G03X10335Y16797I266*
X10600Y17063J266*
X10335Y17328I265*
X10069Y17063J265*
G01Y33139*
G03X10338Y32961I431J361*
G01Y25335*
G03X10604Y25069I266*
X10870Y25335J266*
X10604Y25600I266*
X10338Y25335J265*
G01Y32961*
G03X10500Y32937I162J539*
X11063Y33500J563*
X10500Y34063I563*
X9937Y33500J563*
G01Y39000*
X11496*
Y11000*
G03X11605Y10688I504*
G01Y2500*
G03X12000Y2105I395*
X12395Y2500J395*
X12000Y2895I395*
X11605Y2500J395*
G01Y9500*
G03X12000Y9105I395*
X12395Y9500J395*
X12000Y9895I395*
X11605Y9500J395*
G01Y10688*
G03X12000Y10496I395J312*
X12504Y11000J504*
X12000Y11504I504*
X11496Y11000J504*
G01Y39000*
X11788*
Y32319*
G03X12350Y31756I562*
X12605Y31817J563*
G01Y2500*
G03X13000Y2105I395*
X13395Y2500J395*
X13000Y2895I395*
X12605Y2500J395*
G01Y9500*
G03X13000Y9105I395*
X13395Y9500J395*
X13000Y9895I395*
X12605Y9500J395*
G01Y31817*
G03X12913Y32319I255J502*
X12350Y32881I563*
X11788Y32319J562*
G01Y34681*
G03X12350Y34119I562*
X12913Y34681J562*
X12350Y35244I563*
X11788Y34681J563*
G01Y39000*
X13231*
Y20613*
G03X13497Y20347I266*
X13762Y20613J266*
X13497Y20879I265*
X13231Y20613J266*
G01Y39000*
X13734*
Y22264*
G03X14000Y21998I266*
X14241Y22153J266*
G01Y20633*
G03X14507Y20367I266*
X14672Y20424J266*
G01Y8665*
G03X14937Y8400I265*
X14996Y8406J265*
G01Y3500*
G03X15500Y2996I504*
X16004Y3500J504*
X15500Y4004I504*
X14996Y3500J504*
G01Y8406*
G03X15203Y8665I59J259*
X14937Y8931I266*
X14672Y8665J266*
G01Y20424*
G03X14773Y20633I165J209*
X14507Y20898I266*
X14241Y20633J265*
G01Y22153*
G03X14265Y22264I241J111*
X14000Y22530I265*
X13734Y22264J266*
G01Y39000*
X14496*
Y31500*
G03X14801Y31037I504*
G01Y21974*
G03X15068Y21706I267*
X15336Y21974J268*
X15068Y22241I268*
X14801Y21974J267*
G01Y31037*
G03X15000Y30996I199J463*
X15504Y31500J504*
X15000Y32004I504*
X14496Y31500J504*
G01Y39000*
X15103*
Y36999*
G03X15498Y36604I395*
X15893Y36999J395*
X15498Y37394I395*
X15103Y36999J395*
G01Y39000*
X16103*
Y36999*
G03X16423Y36611I395*
G01Y25890*
G03X16689Y25624I266*
X16705J266*
G01Y16500*
G03X17000Y16205I295*
X17226Y16310J295*
G02X17249Y16321I23J19*
X17272Y16310J30*
G03X17349Y16245I228J190*
G01Y8000*
G03X18000Y7349I651*
X18651Y8000J651*
X18000Y8651I651*
X17349Y8000J651*
G01Y16245*
G03X17500Y16203I151J255*
X17727Y16309J297*
G02X17750Y16319I23J20*
X17773Y16309J30*
G03X18000Y16203I227J191*
X18297Y16500J297*
X18000Y16797I297*
X17773Y16691J297*
G02X17750Y16681I23J20*
X17727Y16691J30*
G03X17500Y16797I227J191*
X17272Y16690J297*
G02X17249Y16679I23J19*
X17226Y16690J30*
G03X17000Y16795I226J190*
X16705Y16500J295*
G01Y25624*
G03X16955Y25890I16J266*
X16689Y26155I266*
X16423Y25890J265*
G01Y36611*
G03X16498Y36604I75J388*
X16893Y36999J395*
X16498Y37394I395*
X16103Y36999J395*
G01Y39000*
X17103*
Y36999*
G03X17496Y36604I395*
G01Y24000*
G03X17996Y23496I504*
G01Y18000*
G03X18500Y17496I504*
X18906Y17703J504*
G01Y14191*
G03X19172Y13925I266*
X19438Y14191J266*
X19172Y14457I266*
X18906Y14191J266*
G01Y17703*
G03X19004Y18000I406J297*
X18500Y18504I504*
X17996Y18000J504*
G01Y23496*
G03X18000I4J504*
X18504Y24000J504*
X18000Y24504I504*
X17496Y24000J504*
G01Y36604*
X17498*
G03X17893Y36999J395*
X17498Y37394I395*
X17103Y36999J395*
G01Y39000*
X18103*
Y36999*
G03X18498Y36604I395*
X18893Y36999J395*
X18498Y37394I395*
X18103Y36999J395*
G01Y39000*
X19085*
Y36999*
G03X19498Y36585I413*
X19654Y36616J414*
G01Y10000*
G03X20000Y9654I346*
X20346Y10000J346*
X20000Y10346I346*
X19654Y10000J346*
G01Y36616*
G03X19911Y36999I156J383*
X19498Y37412I413*
X19085Y36999J413*
G01Y39000*
X20103*
Y36999*
G03X20498Y36604I395*
X20565Y36609J395*
G01Y30825*
G03X20654Y30567I417*
G01Y10000*
G03X21000Y9654I346*
X21346Y10000J346*
X21000Y10346I346*
X20654Y10000J346*
G01Y30567*
G03X20982Y30407I328J258*
X21349Y30625J418*
G01Y8000*
G03X22000Y7349I651*
X22651Y8000J651*
X22000Y8651I651*
X21349Y8000J651*
G01Y30625*
G03X21376Y30687I367J200*
G01Y18000*
G03X21478Y17791I266*
G01Y14359*
G03X21744Y14093I266*
X22009Y14359J266*
X21744Y14625I265*
X21478Y14359J266*
G01Y17791*
G03X21642Y17734I164J209*
X21908Y18000J266*
X21642Y18266I266*
X21376Y18000J266*
G01Y30687*
G03X21400Y30825I394J138*
X20982Y31242I418*
X20565Y30825J417*
G01Y33384*
G03X20982Y32966I417*
X21400Y33384J418*
X20982Y33801I418*
X20565Y33384J417*
G01Y36609*
G03X20893Y36999I67J390*
X20498Y37394I395*
X20103Y36999J395*
G01Y39000*
X22355*
Y30825*
G03X22754Y30426I399*
X23153Y30825J399*
X22754Y31224I399*
X22355Y30825J399*
G01Y33384*
G03X22754Y32985I399*
X23153Y33384J399*
X22754Y33783I399*
X22355Y33384J399*
G01Y39000*
X24456*
Y13671*
G03X24722Y13405I266*
X24988Y13671J266*
X24722Y13937I266*
X24456Y13671J266*
G01Y39000*
X24569*
Y17063*
G03X24835Y16797I266*
X25100Y17063J266*
X24835Y17328I265*
X24569Y17063J265*
G01Y39000*
X24776*
Y31854*
G03X24797Y31750I267*
G01Y29665*
G03X25063Y29400I266*
X25328Y29665J265*
X25063Y29931I265*
X24797Y29665J266*
G01Y31750*
G03X25043Y31587I246J104*
X25310Y31854J267*
X25043Y32122I267*
X24776Y31854J268*
G01Y39000*
X25565*
Y31831*
G03X25583Y31710I413*
G01Y19973*
G03X25978Y19578I395*
X26374Y19973J395*
X25978Y20368I396*
X25583Y19973J395*
G01Y20961*
G03X25978Y20566I395*
X26374Y20961J395*
X25978Y21357I396*
X25583Y20961J396*
G01Y21950*
G03X25978Y21554I395*
X26374Y21950J396*
X25978Y22345I396*
X25583Y21950J395*
G01Y22938*
G03X25978Y22542I395*
X26374Y22938J396*
X25978Y23333I396*
X25583Y22938J395*
G01Y23926*
G03X25978Y23531I395*
X26374Y23926J395*
X25978Y24321I396*
X25583Y23926J395*
G01Y24914*
G03X25978Y24519I395*
X26374Y24914J395*
X25978Y25309I396*
X25583Y24914J395*
G01Y25902*
G03X25978Y25507I395*
X26374Y25902J395*
X25978Y26298I396*
X25583Y25902J396*
G01Y26890*
G03X25978Y26495I395*
X26374Y26890J395*
X25978Y27286I396*
X25583Y26890J396*
G01Y27879*
G03X25978Y27483I395*
X26374Y27879J396*
X25978Y28274I396*
X25583Y27879J395*
G01Y28867*
G03X25978Y28472I395*
X26374Y28867J395*
X25978Y29262I396*
X25583Y28867J395*
G01Y29855*
G03X25978Y29460I395*
X26374Y29855J395*
X25978Y30250I396*
X25583Y29855J395*
G01Y30843*
G03X25978Y30448I395*
X26374Y30843J395*
X25978Y31239I396*
X25583Y30843J396*
G01Y31710*
G03X25978Y31418I395J121*
X26392Y31831J413*
X25978Y32245I414*
X25565Y31831J414*
G01Y39000*
X25583*
Y32820*
G03X25978Y32424I395*
X26374Y32820J396*
X25978Y33215I396*
X25583Y32820J395*
G01Y33808*
G03X25978Y33413I395*
X26374Y33808J395*
X25978Y34203I396*
X25583Y33808J395*
G01Y34796*
G03X25978Y34401I395*
X26374Y34796J395*
X25978Y35191I396*
X25583Y34796J395*
G01Y39000*
X26587*
Y9500*
G03X26605Y9379I413*
G01Y2500*
G03X27000Y2105I395*
X27395Y2500J395*
X27000Y2895I395*
X26605Y2500J395*
G01Y9379*
G03X27000Y9087I395J121*
X27413Y9500J413*
X27000Y9913I413*
X26587Y9500J413*
G01Y39000*
X26996*
Y11000*
G03X27500Y10496I504*
X27605Y10507J504*
G01Y2500*
G03X28000Y2105I395*
X28395Y2500J395*
X28000Y2895I395*
X27605Y2500J395*
G01Y9500*
G03X28000Y9105I395*
X28395Y9500J395*
X28000Y9895I395*
X27605Y9500J395*
G01Y10507*
G03X28004Y11000I105J493*
X27500Y11504I504*
X26996Y11000J504*
G01Y39000*
X28496*
Y11000*
G03X28605Y10688I504*
G01Y2500*
G03X29000Y2105I395*
X29395Y2500J395*
X29000Y2895I395*
X28605Y2500J395*
G01Y9500*
G03X29000Y9105I395*
X29395Y9500J395*
X29000Y9895I395*
X28605Y9500J395*
G01Y10688*
G03X29000Y10496I395J312*
X29504Y11000J504*
X29000Y11504I504*
X28496Y11000J504*
G01Y39000*
X30672*
Y9165*
G03X30937Y8900I265*
X31203Y9165J265*
X30937Y9431I266*
X30672Y9165J266*
G01Y39000*
X31496*
Y3000*
G03X32000Y2496I504*
X32504Y3000J504*
X32000Y3504I504*
X31496Y3000J504*
G01Y39000*
X33583*
Y19973*
G03X33978Y19578I395*
X34374Y19973J395*
X33978Y20368I396*
X33583Y19973J395*
G01Y20961*
G03X33978Y20566I395*
X34374Y20961J395*
X33978Y21357I396*
X33583Y20961J396*
G01Y21950*
G03X33978Y21554I395*
X34374Y21950J396*
X33978Y22345I396*
X33583Y21950J395*
G01Y22938*
G03X33978Y22542I395*
X34374Y22938J396*
X33978Y23333I396*
X33583Y22938J395*
G01Y23926*
G03X33978Y23531I395*
X34374Y23926J395*
X33978Y24321I396*
X33583Y23926J395*
G01Y24914*
G03X33978Y24519I395*
X34374Y24914J395*
X33978Y25309I396*
X33583Y24914J395*
G01Y25902*
G03X33978Y25507I395*
X34374Y25902J395*
X33978Y26298I396*
X33583Y25902J396*
G01Y26890*
G03X33978Y26495I395*
X34374Y26890J395*
X33978Y27286I396*
X33583Y26890J396*
G01Y27879*
G03X33978Y27483I395*
X34374Y27879J396*
X33978Y28274I396*
X33583Y27879J395*
G01Y28867*
G03X33978Y28472I395*
X34374Y28867J395*
X33978Y29262I396*
X33583Y28867J395*
G01Y29855*
G03X33978Y29460I395*
X34374Y29855J395*
X33978Y30250I396*
X33583Y29855J395*
G01Y30843*
G03X33978Y30448I395*
X34374Y30843J395*
X33978Y31239I396*
X33583Y30843J396*
G01Y31831*
G03X33978Y31436I395*
X34374Y31831J395*
X33978Y32227I396*
X33583Y31831J396*
G01Y32820*
G03X33978Y32424I395*
X34374Y32820J396*
X33978Y33215I396*
X33583Y32820J395*
G01Y33808*
G03X33978Y33413I395*
X34374Y33808J395*
X33978Y34203I396*
X33583Y33808J395*
G01Y34796*
G03X33978Y34401I395*
X34374Y34796J395*
X33978Y35191I396*
X33583Y34796J395*
G01Y39000*
X34697*
Y1997*
G03X34964Y1729I267*
X35232Y1997J268*
X34964Y2264I268*
X34697Y1997J267*
G01Y39000*
X34760*
Y6021*
G03X35027Y5754I267*
X35295Y6021J267*
X35027Y6289I268*
X34760Y6021J268*
G01Y39000*
X35496*
Y20500*
G03X35875Y20012I504*
G01Y1500*
G03X36142Y1233I267*
X36409Y1500J267*
X36142Y1767I267*
X35875Y1500J267*
G01Y20012*
G03X36000Y19996I125J488*
X36504Y20500J504*
X36000Y21004I504*
X35496Y20500J504*
G01Y22000*
G03X36000Y21496I504*
X36504Y22000J504*
X36000Y22504I504*
X35496Y22000J504*
G01Y23500*
G03X36000Y22996I504*
X36504Y23500J504*
X36000Y24004I504*
X35496Y23500J504*
G01Y25000*
G03X36000Y24496I504*
X36504Y25000J504*
X36000Y25504I504*
X35496Y25000J504*
G01Y26500*
G03X36000Y25996I504*
X36504Y26500J504*
X36000Y27004I504*
X35496Y26500J504*
G01Y28000*
G03X36000Y27496I504*
X36504Y28000J504*
X36000Y28504I504*
X35496Y28000J504*
G01Y30000*
G03X36000Y29496I504*
X36504Y30000J504*
X36000Y30504I504*
X35496Y30000J504*
G01Y39000*
X36587*
Y2500*
G03X37000Y2087I413*
X37413Y2500J413*
X37000Y2913I413*
X36587Y2500J413*
G01Y10000*
G03X36605Y9879I413*
G01Y3500*
G03X37000Y3105I395*
X37395Y3500J395*
X37000Y3895I395*
X36605Y3500J395*
G01Y4500*
G03X37000Y4105I395*
X37395Y4500J395*
X37000Y4895I395*
X36605Y4500J395*
G01Y5205*
G03X36705Y5105I100*
G01X37295*
G03X37395Y5205J100*
G01Y5795*
G03X37295Y5895I100*
G01X36705*
G03X36605Y5795J100*
G01Y8000*
G03X37000Y7605I395*
X37395Y8000J395*
X37000Y8395I395*
X36605Y8000J395*
G01Y9000*
G03X37000Y8605I395*
X37395Y9000J395*
X37000Y9395I395*
X36605Y9000J395*
G01Y9879*
G03X37000Y9587I395J121*
X37413Y10000J413*
X37000Y10413I413*
X36587Y10000J413*
G01Y15705*
G03X36605Y15642I118*
G01Y10705*
G03X36705Y10605I100*
G01X37295*
G03X37395Y10705J100*
G01Y11295*
G03X37295Y11395I100*
G01X36705*
G03X36605Y11295J100*
G01Y13000*
G03X37000Y12605I395*
X37395Y13000J395*
X37000Y13395I395*
X36605Y13000J395*
G01Y14000*
G03X37000Y13605I395*
X37395Y14000J395*
X37000Y14395I395*
X36605Y14000J395*
G01Y15000*
G03X37000Y14605I395*
X37395Y15000J395*
X37000Y15395I395*
X36605Y15000J395*
G01Y15642*
G03X36705Y15587I100J63*
G01X37295*
G03X37413Y15705J118*
G01Y16295*
G03X37295Y16413I118*
G01X36705*
G03X36587Y16295J118*
G01Y39000*
X37592*
Y1500*
G03X37858Y1234I266*
X38124Y1500J266*
X37858Y1766I266*
X37592Y1500J266*
G01Y39000*
X39470*
G02X39500Y38970J30*
G01X39750Y780*
G02X39720Y750I30*
G01X1530Y1000*
G02X1500Y1030J30*
G01Y22810*
G02X1527Y22840I30*
G03X1705Y22938I30J264*
G01Y16500*
G03X1849Y16246I295*
G01Y8000*
G03X2500Y7349I651*
X3151Y8000J651*
X2500Y8651I651*
X1849Y8000J651*
G01Y16246*
G03X2000Y16205I151J254*
X2226Y16310J295*
G02X2249Y16321I23J19*
X2272Y16310J30*
G03X2500Y16203I228J190*
X2727Y16309J297*
G02X2750Y16319I23J20*
X2773Y16309J30*
G03X3000Y16203I227J191*
X3297Y16500J297*
X3000Y16797I297*
X2773Y16691J297*
G02X2750Y16681I23J20*
X2727Y16691J30*
G03X2500Y16797I227J191*
X2272Y16690J297*
G02X2249Y16679I23J19*
X2226Y16690J30*
G03X2000Y16795I226J190*
X1705Y16500J295*
G01Y22938*
G03X1763Y23104I208J166*
X1527Y23368I266*
G02X1500Y23398I3J30*
G01Y38970*
X39750Y39220D02*
G03X39720Y39250I30D01*
G01X280*
G03X250Y39220J30*
G01Y280*
G03X280Y250I30*
G01X39720*
G03X39750Y280J30*
G01Y620*
G03X39720Y650I30*
G01X1499Y900*
G02X1400Y1000I1J100*
G01Y22837*
G03X1383Y22864I30*
G02X1231Y23104I114J240*
X1383Y23344I266*
G03X1400Y23371I13J27*
G01Y33811*
G03X1370Y33841I30*
X1347Y33831J30*
G02X1142Y33734I205J169*
X876Y34000J266*
X1142Y34266I266*
X1347Y34169J266*
G03X1370Y34159I23J20*
X1400Y34189J30*
G01Y39000*
G02X1500Y39100I100*
G01X39500*
G02X39600Y39001J100*
G01X39690Y25230*
G03X39720Y25200I30*
X39750Y25230J30*
G01Y39220*
G37*
G54D10*
X1142Y34000D02*
X1327Y34231D01*
X1142Y34000D02*
X933Y34209D01*
X1142Y34000D02*
X933Y33791D01*
X1142Y34000D02*
X1327Y33769D01*
X1497Y23104D02*
X1706Y23313D01*
X1497Y23104D02*
X1706Y22895D01*
X1497Y23104D02*
X1288Y23313D01*
X1497Y23104D02*
X1288Y22895D01*
X2000Y16500D02*
X2206Y16752D01*
X2000Y16500D02*
X1770Y16730D01*
X2000Y16500D02*
X1770Y16270D01*
X2000Y16500D02*
X2206Y16248D01*
X4063Y14165D02*
X4272Y14374D01*
X4063Y14165D02*
X3853Y14374D01*
X4063Y14165D02*
X3853Y13956D01*
X4063Y14165D02*
X4272Y13956D01*
X4500Y25500D02*
X4730Y25730D01*
X4500Y25500D02*
X4270Y25730D01*
X4500Y25500D02*
X4270Y25270D01*
X4500Y25500D02*
X4730Y25270D01*
X7142Y17954D02*
X7351Y18163D01*
X7142Y17954D02*
X6933Y18163D01*
X7142Y17954D02*
X6933Y17744D01*
X7142Y17954D02*
X7351Y17744D01*
X7249Y14521D02*
X7458Y14730D01*
X7249Y14521D02*
X7040Y14730D01*
X7249Y14521D02*
X7040Y14312D01*
X7249Y14521D02*
X7458Y14312D01*
X7500Y27358D02*
X7291Y27149D01*
X7500Y27358D02*
X7709Y27149D01*
X7500Y27358D02*
X7291Y27567D01*
X7500Y27358D02*
X7709Y27567D01*
X8142Y34000D02*
X8351Y34209D01*
X8142Y34000D02*
X7933Y34209D01*
X8142Y34000D02*
X7933Y33791D01*
X8142Y34000D02*
X8351Y33791D01*
X9000Y30047D02*
X9209Y30256D01*
X9000Y30047D02*
X8791Y30256D01*
X9000Y30047D02*
X8791Y29838D01*
X9000Y30047D02*
X9209Y29838D01*
X10063Y13665D02*
X10272Y13874D01*
X10063Y13665D02*
X9853Y13874D01*
X10063Y13665D02*
X9853Y13456D01*
X10063Y13665D02*
X10272Y13456D01*
X10335Y17063D02*
X10544Y17272D01*
X10335Y17063D02*
X10126Y17272D01*
X10335Y17063D02*
X10126Y16853D01*
X10335Y17063D02*
X10544Y16853D01*
X10604Y25335D02*
X10813Y25544D01*
X10604Y25335D02*
X10395Y25544D01*
X10604Y25335D02*
X10395Y25126D01*
X10604Y25335D02*
X10813Y25126D01*
X13497Y20613D02*
X13288Y20404D01*
X13497Y20613D02*
X13706Y20822D01*
X13497Y20613D02*
X13288Y20822D01*
X13497Y20613D02*
X13706Y20404D01*
X14000Y22264D02*
X13791Y22055D01*
X14000Y22264D02*
X13791Y22473D01*
X14000Y22264D02*
X14209Y22055D01*
X14000Y22264D02*
X14209Y22473D01*
X14507Y20633D02*
X14716Y20842D01*
X14507Y20633D02*
X14298Y20842D01*
X14507Y20633D02*
X14298Y20424D01*
X14507Y20633D02*
X14716Y20424D01*
X14937Y8665D02*
X15147Y8456D01*
X14937Y8665D02*
X15147Y8874D01*
X14937Y8665D02*
X14728Y8874D01*
X14937Y8665D02*
X14728Y8456D01*
X16689Y25890D02*
X16898Y25681D01*
X16689Y25890D02*
X16898Y26099D01*
X16689Y25890D02*
X16480Y25681D01*
X16689Y25890D02*
X16480Y26099D01*
X17000Y16500D02*
X17206Y16752D01*
X17000Y16500D02*
X16770Y16730D01*
X17000Y16500D02*
X16770Y16270D01*
X17000Y16500D02*
X17206Y16248D01*
X19172Y14191D02*
X18963Y14400D01*
X19172Y14191D02*
X19381Y13982D01*
X19172Y14191D02*
X18963Y13982D01*
X19172Y14191D02*
X19381Y14400D01*
X21642Y18000D02*
X21851Y18209D01*
X21642Y18000D02*
X21433Y18209D01*
X21642Y18000D02*
X21433Y17791D01*
X21642Y18000D02*
X21851Y17791D01*
X21744Y14359D02*
X21953Y14150D01*
X21744Y14359D02*
X21535Y14568D01*
X21744Y14359D02*
X21953Y14568D01*
X21744Y14359D02*
X21535Y14150D01*
X24722Y13671D02*
X24931Y13462D01*
X24722Y13671D02*
X24513Y13462D01*
X24722Y13671D02*
X24931Y13880D01*
X24722Y13671D02*
X24513Y13880D01*
X24835Y17063D02*
X25044Y17272D01*
X24835Y17063D02*
X25044Y16853D01*
X24835Y17063D02*
X24626Y17272D01*
X24835Y17063D02*
X24626Y16853D01*
X25063Y29665D02*
X25272Y29874D01*
X25063Y29665D02*
X24853Y29874D01*
X25063Y29665D02*
X24853Y29456D01*
X25063Y29665D02*
X25272Y29456D01*
X30937Y9165D02*
X31147Y9374D01*
X30937Y9165D02*
X30728Y9374D01*
X30937Y9165D02*
X30728Y8956D01*
X30937Y9165D02*
X31147Y8956D01*
X37858Y1500D02*
X38067Y1709D01*
X37858Y1500D02*
X37649Y1709D01*
X37858Y1500D02*
X37649Y1291D01*
X37858Y1500D02*
X38067Y1291D01*
G54D11*
X11000Y9500D02*
X11314Y9814D01*
X11000Y9500D02*
X10686Y9814D01*
X11000Y9500D02*
X10686Y9186D01*
X11000Y9500D02*
X11314Y9186D01*
X19498Y36999D02*
X19811Y37312D01*
X19498Y36999D02*
X19184Y37312D01*
X19498Y36999D02*
X19184Y36685D01*
X19498Y36999D02*
X19811Y36685D01*
X20982Y30825D02*
X21299Y31141D01*
X20982Y30825D02*
X20666Y31141D01*
X20982Y30825D02*
X20666Y30508D01*
X20982Y30825D02*
X21299Y30508D01*
X20982Y33384D02*
X21299Y33700D01*
X20982Y33384D02*
X20666Y33700D01*
X20982Y33384D02*
X20666Y33067D01*
X20982Y33384D02*
X21299Y33067D01*
X25978Y31831D02*
X26292Y32145D01*
X25978Y31831D02*
X25665Y32145D01*
X25978Y31831D02*
X25665Y31518D01*
X25978Y31831D02*
X26292Y31518D01*
X27000Y9500D02*
X27314Y9814D01*
X27000Y9500D02*
X26686Y9814D01*
X27000Y9500D02*
X26686Y9186D01*
X27000Y9500D02*
X27314Y9186D01*
X36764Y15764D02*
X36600Y15600D01*
X36764Y16236D02*
X36600Y16400D01*
X37000Y2500D02*
X37314Y2814D01*
X37000Y2500D02*
X36686Y2814D01*
X37000Y2500D02*
X36686Y2186D01*
X37000Y2500D02*
X37314Y2186D01*
X37000Y10000D02*
X37314Y10314D01*
X37000Y10000D02*
X36686Y10314D01*
X37000Y10000D02*
X36686Y9686D01*
X37000Y10000D02*
X37314Y9686D01*
X37236Y15764D02*
X37400Y15600D01*
X37236Y16236D02*
X37400Y16400D01*
G54D12*
X1142Y34000D03*
X1497Y23104D03*
X4063Y14165D03*
X7142Y17954D03*
X7249Y14521D03*
X7500Y27358D03*
X8142Y34000D03*
X9000Y30047D03*
X10063Y13665D03*
X10335Y17063D03*
X10604Y25335D03*
X13497Y20613D03*
X14000Y22264D03*
X14507Y20633D03*
X14937Y8665D03*
X15068Y21974D03*
X16689Y25890D03*
X19172Y14191D03*
X21642Y18000D03*
X21744Y14359D03*
X24722Y13671D03*
X24835Y17063D03*
X25043Y31854D03*
X25063Y29665D03*
X30937Y9165D03*
X34964Y1997D03*
X35027Y6021D03*
X36142Y1500D03*
X37858D03*
G54D13*
X2500Y8000D03*
X6500D03*
X18000D03*
X22000D03*
G54D14*
X4500Y10000D03*
X5500D03*
X20000D03*
X21000D03*
G54D15*
X3500Y33500D03*
X5350Y32319D03*
Y34681D03*
X10500Y33500D03*
X12350Y32319D03*
Y34681D03*
G54D16*
X2500Y31500D03*
X3500Y18000D03*
X8500Y24000D03*
X10500Y11000D03*
X12000D03*
X15000Y31500D03*
X15500Y3500D03*
X18000Y24000D03*
X18500Y18000D03*
X27500Y11000D03*
X29000D03*
X32000Y3000D03*
X36000Y20500D03*
Y22000D03*
Y23500D03*
Y25000D03*
Y26500D03*
Y28000D03*
Y30000D03*
G54D17*
X2000Y16500D03*
X2500D03*
X3000D03*
X3500Y25500D03*
X4500D03*
X5500D03*
X17000Y16500D03*
X17500D03*
X18000D03*
G54D18*
X11000Y2500D03*
Y9500D03*
X12000Y2500D03*
Y9500D03*
X13000Y2500D03*
Y9500D03*
X15498Y36999D03*
X16498D03*
X17498D03*
X18498D03*
X19498D03*
X20498D03*
X25978Y19973D03*
Y20961D03*
Y21950D03*
Y22938D03*
Y23926D03*
Y24914D03*
Y25902D03*
Y26890D03*
Y27879D03*
Y28867D03*
Y29855D03*
Y30843D03*
Y31831D03*
Y32820D03*
Y33808D03*
Y34796D03*
X27000Y2500D03*
Y9500D03*
X28000Y2500D03*
Y9500D03*
X29000Y2500D03*
Y9500D03*
X33978Y19973D03*
Y20961D03*
Y21950D03*
Y22938D03*
Y23926D03*
Y24914D03*
Y25902D03*
Y26890D03*
Y27879D03*
Y28867D03*
Y29855D03*
Y30843D03*
Y31831D03*
Y32820D03*
Y33808D03*
Y34796D03*
X37000Y2500D03*
Y3500D03*
Y4500D03*
Y8000D03*
Y9000D03*
Y10000D03*
Y13000D03*
Y14000D03*
Y15000D03*
G54D19*
Y5500D03*
Y11000D03*
Y16000D03*
G54D70*
X20982Y30825D03*
Y33384D03*
X22754Y30825D03*
Y33384D03*
M02*
