*
G04 Job   : H:\OstraCam_II\Schematic\PCB\Design1.pcb*
G04 User  : CELAB13:clim*
G04 Layer : SoldermaskBottom.gdo*
G04 Date  : Mon Jan 23 17:27:34 2017*
G04 Mentor Graphics Example Gerber Output Definition*
%ICAS*%
%MOIN*%
%FSLAX24Y24*%
%OFA0.0000B0.0000*%
G90*
G74*
%AMVB_RECTANGLE*
21,1,$1,$2,0,0,$3*
%
%ADD10C,0.03346*%
%ADD15C,0.04331*%
%ADD12C,0.05315*%
%ADD16C,0.06299*%
%ADD18C,0.06378*%
%ADD14C,0.08465*%
%ADD13C,0.09646*%
%ADD11C,0.11417*%
%ADD17VB_RECTANGLE,0.06299X0.06299X90.00000*%
G01*
G54D10*
X1142Y34000D03*
X1497Y23104D03*
X4063Y14165D03*
X7142Y17954D03*
X7249Y14521D03*
X7500Y27358D03*
X8142Y34000D03*
X9000Y30047D03*
X10063Y13665D03*
X10335Y17063D03*
X10604Y25335D03*
X13497Y20613D03*
X14000Y22264D03*
X14507Y20633D03*
X14937Y8665D03*
X15068Y21974D03*
X16689Y25890D03*
X19172Y14191D03*
X21642Y18000D03*
X21744Y14359D03*
X24722Y13671D03*
X24835Y17063D03*
X25043Y31854D03*
X25063Y29665D03*
X30937Y9165D03*
X34964Y1997D03*
X35027Y6021D03*
X36142Y1500D03*
X37858D03*
G54D11*
X2500Y8000D03*
X6500D03*
X18000D03*
X22000D03*
G54D12*
X4500Y10000D03*
X5500D03*
X20000D03*
X21000D03*
G54D13*
X3500Y33500D03*
X5350Y32319D03*
Y34681D03*
X10500Y33500D03*
X12350Y32319D03*
Y34681D03*
G54D14*
X2500Y31500D03*
X3500Y18000D03*
X8500Y24000D03*
X10500Y11000D03*
X12000D03*
X15000Y31500D03*
X15500Y3500D03*
X18000Y24000D03*
X18500Y18000D03*
X27500Y11000D03*
X29000D03*
X32000Y3000D03*
X36000Y20500D03*
Y22000D03*
Y23500D03*
Y25000D03*
Y26500D03*
Y28000D03*
Y30000D03*
G54D15*
X2000Y16500D03*
X2500D03*
X3000D03*
X3500Y25500D03*
X4500D03*
X5500D03*
X17000Y16500D03*
X17500D03*
X18000D03*
G54D16*
X11000Y2500D03*
Y9500D03*
X12000Y2500D03*
Y9500D03*
X13000Y2500D03*
Y9500D03*
X15498Y36999D03*
X16498D03*
X17498D03*
X18498D03*
X19498D03*
X20498D03*
X25978Y19973D03*
Y20961D03*
Y21950D03*
Y22938D03*
Y23926D03*
Y24914D03*
Y25902D03*
Y26890D03*
Y27879D03*
Y28867D03*
Y29855D03*
Y30843D03*
Y31831D03*
Y32820D03*
Y33808D03*
Y34796D03*
X27000Y2500D03*
Y9500D03*
X28000Y2500D03*
Y9500D03*
X29000Y2500D03*
Y9500D03*
X33978Y19973D03*
Y20961D03*
Y21950D03*
Y22938D03*
Y23926D03*
Y24914D03*
Y25902D03*
Y26890D03*
Y27879D03*
Y28867D03*
Y29855D03*
Y30843D03*
Y31831D03*
Y32820D03*
Y33808D03*
Y34796D03*
X37000Y2500D03*
Y3500D03*
Y4500D03*
Y8000D03*
Y9000D03*
Y10000D03*
Y13000D03*
Y14000D03*
Y15000D03*
G54D17*
Y5500D03*
Y11000D03*
Y16000D03*
G54D18*
X20982Y30825D03*
Y33384D03*
X22754Y30825D03*
Y33384D03*
M02*
