*
G04 Job   : H:\OstraCam_II\Schematic\PCB\Design1.pcb*
G04 User  : CELAB13:clim*
G04 Layer : SolderPasteTop.gdo*
G04 Date  : Mon Jan 23 17:27:34 2017*
G04 Mentor Graphics Example Gerber Output Definition*
%ICAS*%
%MOIN*%
%FSLAX24Y24*%
%OFA0.0000B0.0000*%
G90*
G74*
%AMVB_RECTANGLE*
21,1,$1,$2,0,0,$3*
%
%ADD11VB_RECTANGLE,0.02559X0.00984X270.00000*%
%ADD10VB_RECTANGLE,0.05512X0.04724X180.00000*%
%ADD14VB_RECTANGLE,0.05512X0.04724X90.00000*%
%ADD12VB_RECTANGLE,0.05906X0.05118X180.00000*%
%ADD13VB_RECTANGLE,0.05906X0.05118X270.00000*%
%ADD15VB_RECTANGLE,0.14961X0.03937X90.00000*%
%ADD16VB_RECTANGLE,0.40945X0.34646X180.00000*%
G01*
G54D10*
X6500Y12646D03*
Y13354D03*
X8000Y12646D03*
Y13354D03*
X10000Y23146D03*
Y23854D03*
X15500Y10146D03*
Y10854D03*
X16500Y23146D03*
Y23854D03*
X21000Y12646D03*
Y13354D03*
X22500Y12646D03*
Y13354D03*
X24500Y31146D03*
Y31854D03*
X31500Y10646D03*
Y11354D03*
X35000Y2646D03*
Y3354D03*
Y4646D03*
Y5354D03*
G54D11*
X7250Y15055D03*
Y16945D03*
X7750Y15055D03*
Y16945D03*
X8250Y15055D03*
Y16945D03*
X8750Y15055D03*
Y16945D03*
X21750Y15055D03*
Y16945D03*
X22250Y15055D03*
Y16945D03*
X22750Y15055D03*
Y16945D03*
X23250Y15055D03*
Y16945D03*
G54D12*
X1500Y23665D03*
Y24335D03*
X2500Y14165D03*
Y14835D03*
X3500Y14165D03*
Y14835D03*
X7500Y26165D03*
Y26835D03*
X9000Y30665D03*
Y31335D03*
X9500Y13665D03*
Y14335D03*
X10000Y24665D03*
Y25335D03*
X13500Y21165D03*
Y21835D03*
X14500Y21165D03*
Y21835D03*
X15500Y8665D03*
Y9335D03*
X16500Y24665D03*
Y25335D03*
X17500Y14165D03*
Y14835D03*
X18500Y14165D03*
Y14835D03*
X24000Y13665D03*
Y14335D03*
X24500Y29665D03*
Y30335D03*
X31500Y9165D03*
Y9835D03*
G54D13*
X1665Y34000D03*
X2335D03*
X8665D03*
X9335D03*
X9665Y16500D03*
X10335D03*
X24165D03*
X24835D03*
X36665Y1500D03*
X37335D03*
G54D14*
X7646Y18000D03*
X8354D03*
X8646Y32500D03*
X9354D03*
X22146Y18000D03*
X22854D03*
G54D15*
X12500Y23280D03*
X13500D03*
X14500D03*
G54D16*
X13500Y27256D03*
M02*
