; Version : LOCAL
; Job     : H:\OstraCam_II\Schematic\PCB\Design1.pcb
; User    : CELAB13:clim
; Date    : Fri Jan 20 12:01:35 2017
; Format  : 2.4 / Absolute / Inch / Trailing
; Contents: Thru / Drill / Plated
M48
INCH,LZ
FMAT,2
ICI,OFF
T08C0.0177
T05C0.0197
T03C0.0354
T06C0.0394
T07C0.0402
T04C0.0413
T01C0.0630
T02C0.0807
%
M72
G90
G93X0Y0
T08
X034964Y001997
X036142Y0015
X037858
X035027Y006021
X014937Y008665
X030937Y009165
X010063Y013665
X024722Y013671
X021744Y014359
X019172Y014191
X007249Y014521
X004063Y014165
X007142Y017954
X010335Y017063
X024835
X021642Y018
X014507Y020633
X013497Y020613
X015068Y021974
X014Y022264
X001497Y023104
X010604Y025335
X016689Y02589
X0075Y027358
X025063Y029665
X009Y030047
X025043Y031854
X008142Y034
X001142
T05
X018Y0165
X0175
X017
X003
X0025
X002
X0035Y0255
X0045
X0055
T03
X021Y01
X02
X0055
X0045
T06
X037Y0025
X029
X028
X027
X013
X012
X011
X037Y0035
Y0045
Y0055
Y008
X011Y0095
X012
X013
X027
X028
X029
X037Y009
Y01
Y011
Y013
Y014
Y015
Y016
X025978Y019973
X033978
Y020961
X025978
Y02195
X033978
Y022938
X025978
Y023926
X033978
Y024914
X025978
Y025902
X033978
Y02689
X025978
Y027879
X033978
Y028867
X025978
Y029855
X033978
Y030843
X025978
Y031831
X033978
Y03282
X025978
Y033808
X033978
Y034796
X025978
X020498Y036999
X019498
X018498
X017498
X016498
X015498
T07
X022754Y030825
X020982
Y033384
X022754
T04
X0155Y0035
X032Y003
X0105Y011
X012
X0275
X029
X0185Y018
X0035
X036Y0205
Y022
Y0235
X018Y024
X0085
X036Y025
Y0265
Y028
Y03
X0025Y0315
X015
T01
X01235Y032319
X00535
X0035Y0335
X0105
X01235Y034681
X00535
T02
X022Y008
X018
X0065
X0025
T00
M30
